<svg xmlns="http://www.w3.org/2000/svg"  viewBox="0 0 120 120" width="100px" height="100px" baseProfile="basic"><polygon points="94,114.999 102,108.999 90,93.999 82,99.999" opacity=".35"/><polygon points="26,114.999 18,108.999 30,93.999 38,99.999" opacity=".35"/><circle cx="30" cy="35.999" r="20" opacity=".35"/><circle cx="90" cy="35.999" r="20" opacity=".35"/><rect width="12" height="10" x="54" y="8.999" fill="#0037ff"/><polygon fill="#0037ff" points="94,110.999 102,104.999 90,89.999 82,95.999"/><polygon fill="#0037ff" points="26,110.999 18,104.999 30,89.999 38,95.999"/><circle cx="30" cy="30.999" r="20" fill="#ffc400"/><circle cx="90" cy="30.999" r="20" fill="#ffc400"/><ellipse cx="60.056" cy="65.499" opacity=".35" rx="44.041" ry="44.5"/><ellipse cx="60.056" cy="61.499" fill="#6666ff" rx="44.041" ry="44.5"/><ellipse cx="60.056" cy="65.499" opacity=".35" rx="35.134" ry="35.5"/><ellipse cx="60.056" cy="61.499" fill="#a4e2f1" rx="35.134" ry="35.5"/><polygon points="75.022,86.67 56.056,65.53 56.056,37.999 64.056,37.999 64.056,62.468 80.978,81.328" opacity=".35"/><polygon fill="#0037ff" points="75.022,83.67 56.056,62.53 56.056,34.999 64.056,34.999 64.056,59.468 80.978,78.328"/><circle cx="60" cy="63.999" r="8" opacity=".35"/><circle cx="60" cy="60.999" r="8" fill="#0075ff"/></svg>